<svg width="1692" height="1018" xmlns="http://www.w3.org/2000/svg" xmlns:xlink="http://www.w3.org/1999/xlink" xml:space="preserve" overflow="hidden"><defs><clipPath id="clip0"><rect x="2447" y="2771" width="1692" height="1018"/></clipPath><clipPath id="clip1"><rect x="2448" y="2772" width="1688" height="1015"/></clipPath><clipPath id="clip2"><rect x="2448" y="2772" width="1688" height="1015"/></clipPath><clipPath id="clip3"><rect x="2686" y="2942" width="1216" height="540"/></clipPath><clipPath id="clip4"><rect x="2686" y="2942" width="1216" height="540"/></clipPath><clipPath id="clip5"><rect x="2448" y="2772" width="1688" height="1015"/></clipPath><clipPath id="clip6"><rect x="2448" y="2772" width="1688" height="1015"/></clipPath><clipPath id="clip7"><rect x="2448" y="2772" width="1688" height="1015"/></clipPath><clipPath id="clip8"><rect x="2448" y="2772" width="1688" height="1015"/></clipPath><clipPath id="clip9"><rect x="2448" y="2772" width="1688" height="1015"/></clipPath><clipPath id="clip10"><rect x="2448" y="2772" width="1688" height="1015"/></clipPath><clipPath id="clip11"><rect x="2448" y="2772" width="1688" height="1015"/></clipPath><clipPath id="clip12"><rect x="2448" y="2772" width="1688" height="1015"/></clipPath><clipPath id="clip13"><rect x="2448" y="2772" width="1688" height="1015"/></clipPath><clipPath id="clip14"><rect x="2448" y="2772" width="1688" height="1015"/></clipPath><clipPath id="clip15"><rect x="2448" y="2772" width="1688" height="1015"/></clipPath><clipPath id="clip16"><rect x="2448" y="2772" width="1688" height="1015"/></clipPath><clipPath id="clip17"><rect x="2448" y="2772" width="1688" height="1015"/></clipPath><clipPath id="clip18"><rect x="2448" y="2772" width="1688" height="1015"/></clipPath><clipPath id="clip19"><rect x="2448" y="2772" width="1688" height="1015"/></clipPath><clipPath id="clip20"><rect x="2448" y="2772" width="1688" height="1015"/></clipPath><clipPath id="clip21"><rect x="2448" y="2772" width="1688" height="1015"/></clipPath><clipPath id="clip22"><rect x="2448" y="2772" width="1688" height="1015"/></clipPath><clipPath id="clip23"><rect x="2448" y="2772" width="1688" height="1015"/></clipPath><clipPath id="clip24"><rect x="2448" y="2772" width="1688" height="1015"/></clipPath><clipPath id="clip25"><rect x="2448" y="2772" width="1688" height="1015"/></clipPath><clipPath id="clip26"><rect x="2448" y="2772" width="1688" height="1015"/></clipPath><clipPath id="clip27"><rect x="2448" y="2772" width="1688" height="1015"/></clipPath><clipPath id="clip28"><rect x="2448" y="2772" width="1688" height="1015"/></clipPath><clipPath id="clip29"><rect x="2448" y="2772" width="1688" height="1015"/></clipPath><clipPath id="clip30"><rect x="2448" y="2772" width="1688" height="1015"/></clipPath><clipPath id="clip31"><rect x="2448" y="2772" width="1688" height="1015"/></clipPath><clipPath id="clip32"><rect x="2448" y="2772" width="1688" height="1015"/></clipPath><clipPath id="clip33"><rect x="2448" y="2772" width="1688" height="1015"/></clipPath></defs><g clip-path="url(#clip0)" transform="translate(-2447 -2771)"><rect x="2448" y="2772" width="1689" height="1015" fill="#FFFFFF"/><g clip-path="url(#clip1)"><path d="M2686.5 3371.61 3898.5 3371.61M2686.5 3264.61 3898.5 3264.61M2686.5 3156.6 3898.5 3156.6M2686.5 3049.6 3898.5 3049.6M2686.5 2942.5 3898.5 2942.5" stroke="#D9D9D9" stroke-width="3.4375" stroke-linejoin="round" stroke-miterlimit="10" fill="none"/></g><g clip-path="url(#clip2)"><path d="M2686.5 3478.5 3898.5 3478.5" stroke="#D9D9D9" stroke-width="3.4375" stroke-linejoin="round" stroke-miterlimit="10" fill="none" fill-rule="evenodd"/></g><g clip-path="url(#clip3)"><path d="M2787 3264 2989.1 3091.1 3191.1 3064.1 3393.11 3055.1 3596.12 3051 3798 3060.1" stroke="#4472C4" stroke-width="10.3125" stroke-linecap="round" stroke-linejoin="round" stroke-miterlimit="10" fill="none"/></g><g clip-path="url(#clip4)"><path d="M2787 3032 2989.1 3277.11 3191.1 3371.11 3393.11 3424.11 3596.12 3451.11 3798 3462" stroke="#ED7D31" stroke-width="10.3125" stroke-linecap="round" stroke-linejoin="round" stroke-miterlimit="10" fill="none"/></g><g clip-path="url(#clip5)"><path d="M2798.6 3031.62C2798.6 3037.69 2793.67 3042.62 2787.6 3042.62 2781.52 3042.62 2776.6 3037.69 2776.6 3031.62 2776.6 3025.54 2781.52 3020.62 2787.6 3020.62 2793.67 3020.62 2798.6 3025.54 2798.6 3031.62Z" stroke="#ED7D31" stroke-width="3.4375" stroke-linejoin="round" stroke-miterlimit="10" fill="#ED7D31"/><path d="M3000.6 3277.62C3000.6 3283.69 2995.67 3288.62 2989.6 3288.62 2983.52 3288.62 2978.6 3283.69 2978.6 3277.62 2978.6 3271.54 2983.52 3266.62 2989.6 3266.62 2995.67 3266.62 3000.6 3271.54 3000.6 3277.62Z" stroke="#ED7D31" stroke-width="3.4375" stroke-linejoin="round" stroke-miterlimit="10" fill="#ED7D31"/><path d="M3202.6 3370.62C3202.6 3376.69 3197.67 3381.62 3191.6 3381.62 3185.52 3381.62 3180.6 3376.69 3180.6 3370.62 3180.6 3364.54 3185.52 3359.62 3191.6 3359.62 3197.67 3359.62 3202.6 3364.54 3202.6 3370.62Z" stroke="#ED7D31" stroke-width="3.4375" stroke-linejoin="round" stroke-miterlimit="10" fill="#ED7D31"/><path d="M3404.6 3423.62C3404.6 3429.69 3399.67 3434.62 3393.6 3434.62 3387.52 3434.62 3382.6 3429.69 3382.6 3423.62 3382.6 3417.54 3387.52 3412.62 3393.6 3412.62 3399.67 3412.62 3404.6 3417.54 3404.6 3423.62Z" stroke="#ED7D31" stroke-width="3.4375" stroke-linejoin="round" stroke-miterlimit="10" fill="#ED7D31"/><path d="M3606.6 3451.62C3606.6 3457.69 3601.67 3462.62 3595.6 3462.62 3589.52 3462.62 3584.6 3457.69 3584.6 3451.62 3584.6 3445.54 3589.52 3440.62 3595.6 3440.62 3601.67 3440.62 3606.6 3445.54 3606.6 3451.62Z" stroke="#ED7D31" stroke-width="3.4375" stroke-linejoin="round" stroke-miterlimit="10" fill="#ED7D31"/><path d="M3808.6 3462.62C3808.6 3468.69 3803.67 3473.62 3797.6 3473.62 3791.52 3473.62 3786.6 3468.69 3786.6 3462.62 3786.6 3456.54 3791.52 3451.62 3797.6 3451.62 3803.67 3451.62 3808.6 3456.54 3808.6 3462.62Z" stroke="#ED7D31" stroke-width="3.4375" stroke-linejoin="round" stroke-miterlimit="10" fill="#ED7D31"/></g><g clip-path="url(#clip6)"><text fill="#595959" font-family="Calibri,Calibri_MSFontService,sans-serif" font-weight="400" font-size="41" transform="matrix(1 0 0 1 3936.99 3490)">0,00</text></g><g clip-path="url(#clip7)"><text fill="#595959" font-family="Calibri,Calibri_MSFontService,sans-serif" font-weight="400" font-size="41" transform="matrix(1 0 0 1 3936.99 3401)">0,20</text></g><g clip-path="url(#clip8)"><text fill="#595959" font-family="Calibri,Calibri_MSFontService,sans-serif" font-weight="400" font-size="41" transform="matrix(1 0 0 1 3936.99 3312)">0,40</text></g><g clip-path="url(#clip9)"><text fill="#595959" font-family="Calibri,Calibri_MSFontService,sans-serif" font-weight="400" font-size="41" transform="matrix(1 0 0 1 3936.99 3222)">0,60</text></g><g clip-path="url(#clip10)"><text fill="#595959" font-family="Calibri,Calibri_MSFontService,sans-serif" font-weight="400" font-size="41" transform="matrix(1 0 0 1 3936.99 3133)">0,80</text></g><g clip-path="url(#clip11)"><text fill="#595959" font-family="Calibri,Calibri_MSFontService,sans-serif" font-weight="400" font-size="41" transform="matrix(1 0 0 1 3936.99 3043)">1,00</text></g><g clip-path="url(#clip12)"><text fill="#595959" font-family="Calibri,Calibri_MSFontService,sans-serif" font-weight="400" font-size="41" transform="matrix(1 0 0 1 3936.99 2954)">1,20</text></g><g clip-path="url(#clip13)"><text fill="#595959" font-family="Calibri,Calibri_MSFontService,sans-serif" font-weight="400" font-size="41" transform="matrix(1 0 0 1 2575.08 3490)">0,00</text></g><g clip-path="url(#clip14)"><text fill="#595959" font-family="Calibri,Calibri_MSFontService,sans-serif" font-weight="400" font-size="41" transform="matrix(1 0 0 1 2575.08 3383)">0,50</text></g><g clip-path="url(#clip15)"><text fill="#595959" font-family="Calibri,Calibri_MSFontService,sans-serif" font-weight="400" font-size="41" transform="matrix(1 0 0 1 2575.08 3276)">1,00</text></g><g clip-path="url(#clip16)"><text fill="#595959" font-family="Calibri,Calibri_MSFontService,sans-serif" font-weight="400" font-size="41" transform="matrix(1 0 0 1 2575.08 3168)">1,50</text></g><g clip-path="url(#clip17)"><text fill="#595959" font-family="Calibri,Calibri_MSFontService,sans-serif" font-weight="400" font-size="41" transform="matrix(1 0 0 1 2575.08 3061)">2,00</text></g><g clip-path="url(#clip18)"><text fill="#595959" font-family="Calibri,Calibri_MSFontService,sans-serif" font-weight="400" font-size="41" transform="matrix(1 0 0 1 2575.08 2954)">2,50</text></g><g clip-path="url(#clip19)"><text fill="#595959" font-family="Calibri,Calibri_MSFontService,sans-serif" font-weight="400" font-size="41" transform="matrix(1 0 0 1 2776.92 3544)">1</text></g><g clip-path="url(#clip20)"><text fill="#595959" font-family="Calibri,Calibri_MSFontService,sans-serif" font-weight="400" font-size="41" transform="matrix(1 0 0 1 2962.78 3544)">.5C</text></g><g clip-path="url(#clip21)"><text fill="#595959" font-family="Calibri,Calibri_MSFontService,sans-serif" font-weight="400" font-size="41" transform="matrix(1 0 0 1 3170.05 3544)">1C</text></g><g clip-path="url(#clip22)"><text fill="#595959" font-family="Calibri,Calibri_MSFontService,sans-serif" font-weight="400" font-size="41" transform="matrix(1 0 0 1 3372.11 3544)">2C</text></g><g clip-path="url(#clip23)"><text fill="#595959" font-family="Calibri,Calibri_MSFontService,sans-serif" font-weight="400" font-size="41" transform="matrix(1 0 0 1 3574.17 3544)">4C</text></g><g clip-path="url(#clip24)"><text fill="#595959" font-family="Calibri,Calibri_MSFontService,sans-serif" font-weight="400" font-size="41" transform="matrix(1 0 0 1 3785 3544)">D</text></g><g clip-path="url(#clip25)"><text fill="#595959" font-family="Calibri,Calibri_MSFontService,sans-serif" font-weight="400" font-size="46" transform="matrix(6.12323e-17 -1 1 6.12323e-17 4067.73 3298)">Eficiencia</text></g><g clip-path="url(#clip26)"><text fill="#595959" font-family="Calibri,Calibri_MSFontService,sans-serif" font-weight="400" font-size="46" transform="matrix(6.12323e-17 -1 1 6.12323e-17 2549.39 3292)">Speedup</text></g><g clip-path="url(#clip27)"><text fill="#595959" font-family="Calibri,Calibri_MSFontService,sans-serif" font-weight="400" font-size="46" transform="matrix(1 0 0 1 3138.49 3613)">Numero de hilos</text></g><g clip-path="url(#clip28)"><text fill="#595959" font-family="Calibri,Calibri_MSFontService,sans-serif" font-weight="400" font-size="64" transform="matrix(1 0 0 1 3015.17 2867)">Speedup vs Eficiencia</text></g><g clip-path="url(#clip29)"><path d="M3061 3721 3149 3721" stroke="#4472C4" stroke-width="10.3125" stroke-linecap="round" stroke-linejoin="round" stroke-miterlimit="10" fill="none" fill-rule="evenodd"/></g><g clip-path="url(#clip30)"><text fill="#595959" font-family="Calibri,Calibri_MSFontService,sans-serif" font-weight="400" font-size="41" transform="matrix(1 0 0 1 3157.94 3733)">Series1</text></g><g clip-path="url(#clip31)"><path d="M3322 3721 3410 3721" stroke="#ED7D31" stroke-width="10.3125" stroke-linecap="round" stroke-linejoin="round" stroke-miterlimit="10" fill="none" fill-rule="evenodd"/></g><g clip-path="url(#clip32)"><path d="M3377.02 3721C3377.02 3727.07 3372.31 3732 3366.5 3732 3360.69 3732 3355.98 3727.07 3355.98 3721 3355.98 3714.92 3360.69 3710 3366.5 3710 3372.31 3710 3377.02 3714.92 3377.02 3721Z" stroke="#ED7D31" stroke-width="3.4375" stroke-linejoin="round" stroke-miterlimit="10" fill="#ED7D31"/></g><g clip-path="url(#clip33)"><text fill="#595959" font-family="Calibri,Calibri_MSFontService,sans-serif" font-weight="400" font-size="41" transform="matrix(1 0 0 1 3419.64 3733)">Series2</text></g><rect x="2448.5" y="2772.5" width="1689" height="1015" stroke="#D9D9D9" stroke-width="3.4375" stroke-linejoin="round" stroke-miterlimit="10" fill="none"/></g></svg>