<svg width="1650" height="993" xmlns="http://www.w3.org/2000/svg" xmlns:xlink="http://www.w3.org/1999/xlink" xml:space="preserve" overflow="hidden"><defs><clipPath id="clip0"><rect x="2015" y="1680" width="1650" height="993"/></clipPath><clipPath id="clip1"><rect x="2016" y="1681" width="1646" height="989"/></clipPath><clipPath id="clip2"><rect x="2016" y="1681" width="1646" height="989"/></clipPath><clipPath id="clip3"><rect x="2296" y="1851" width="1132" height="514"/></clipPath><clipPath id="clip4"><rect x="2296" y="1851" width="1132" height="514"/></clipPath><clipPath id="clip5"><rect x="2016" y="1681" width="1646" height="989"/></clipPath><clipPath id="clip6"><rect x="2016" y="1681" width="1646" height="989"/></clipPath><clipPath id="clip7"><rect x="2016" y="1681" width="1646" height="989"/></clipPath><clipPath id="clip8"><rect x="2016" y="1681" width="1646" height="989"/></clipPath><clipPath id="clip9"><rect x="2016" y="1681" width="1646" height="989"/></clipPath><clipPath id="clip10"><rect x="2016" y="1681" width="1646" height="989"/></clipPath><clipPath id="clip11"><rect x="2016" y="1681" width="1646" height="989"/></clipPath><clipPath id="clip12"><rect x="2016" y="1681" width="1646" height="989"/></clipPath><clipPath id="clip13"><rect x="2016" y="1681" width="1646" height="989"/></clipPath><clipPath id="clip14"><rect x="2016" y="1681" width="1646" height="989"/></clipPath><clipPath id="clip15"><rect x="2016" y="1681" width="1646" height="989"/></clipPath><clipPath id="clip16"><rect x="2016" y="1681" width="1646" height="989"/></clipPath><clipPath id="clip17"><rect x="2016" y="1681" width="1646" height="989"/></clipPath><clipPath id="clip18"><rect x="2016" y="1681" width="1646" height="989"/></clipPath><clipPath id="clip19"><rect x="2016" y="1681" width="1646" height="989"/></clipPath><clipPath id="clip20"><rect x="2016" y="1681" width="1646" height="989"/></clipPath><clipPath id="clip21"><rect x="2016" y="1681" width="1646" height="989"/></clipPath><clipPath id="clip22"><rect x="2016" y="1681" width="1646" height="989"/></clipPath><clipPath id="clip23"><rect x="2016" y="1681" width="1646" height="989"/></clipPath><clipPath id="clip24"><rect x="2016" y="1681" width="1646" height="989"/></clipPath><clipPath id="clip25"><rect x="2016" y="1681" width="1646" height="989"/></clipPath><clipPath id="clip26"><rect x="2016" y="1681" width="1646" height="989"/></clipPath><clipPath id="clip27"><rect x="2016" y="1681" width="1646" height="989"/></clipPath><clipPath id="clip28"><rect x="2016" y="1681" width="1646" height="989"/></clipPath><clipPath id="clip29"><rect x="2016" y="1681" width="1646" height="989"/></clipPath></defs><g clip-path="url(#clip0)" transform="translate(-2015 -1680)"><rect x="2016" y="1681" width="1647" height="990" fill="#FFFFFF"/><g clip-path="url(#clip1)"><path d="M2296.5 2234.57 3424.5 2234.57M2296.5 2106.57 3424.5 2106.57M2296.5 1978.57 3424.5 1978.57M2296.5 1851.5 3424.5 1851.5" stroke="#D9D9D9" stroke-width="3.4375" stroke-linejoin="round" stroke-miterlimit="10" fill="none"/></g><g clip-path="url(#clip2)"><path d="M2296.5 2362.5 3424.5 2362.5" stroke="#D9D9D9" stroke-width="3.4375" stroke-linejoin="round" stroke-miterlimit="10" fill="none" fill-rule="evenodd"/></g><g clip-path="url(#clip3)"><path d="M2484 2360 2860.09 2353.08 3237 1889" stroke="#4472C4" stroke-width="10.3125" stroke-linecap="round" stroke-linejoin="round" stroke-miterlimit="10" fill="none"/></g><g clip-path="url(#clip4)"><path d="M2484 1936 2860.09 2166 3237 1936" stroke="#ED7D31" stroke-width="10.3125" stroke-linecap="round" stroke-linejoin="round" stroke-miterlimit="10" fill="none"/></g><g clip-path="url(#clip5)"><path d="M2495.89 1936.66C2495.89 1942.74 2490.97 1947.66 2484.89 1947.66 2478.82 1947.66 2473.89 1942.74 2473.89 1936.66 2473.89 1930.59 2478.82 1925.66 2484.89 1925.66 2490.97 1925.66 2495.89 1930.59 2495.89 1936.66Z" stroke="#ED7D31" stroke-width="3.4375" stroke-linejoin="round" stroke-miterlimit="10" fill="#ED7D31"/><path d="M2871.89 2165.66C2871.89 2171.74 2866.97 2176.66 2860.89 2176.66 2854.82 2176.66 2849.89 2171.74 2849.89 2165.66 2849.89 2159.59 2854.82 2154.66 2860.89 2154.66 2866.97 2154.66 2871.89 2159.59 2871.89 2165.66Z" stroke="#ED7D31" stroke-width="3.4375" stroke-linejoin="round" stroke-miterlimit="10" fill="#ED7D31"/><path d="M3247.89 1936.66C3247.89 1942.74 3242.97 1947.66 3236.89 1947.66 3230.82 1947.66 3225.89 1942.74 3225.89 1936.66 3225.89 1930.59 3230.82 1925.66 3236.89 1925.66 3242.97 1925.66 3247.89 1930.59 3247.89 1936.66Z" stroke="#ED7D31" stroke-width="3.4375" stroke-linejoin="round" stroke-miterlimit="10" fill="#ED7D31"/></g><g clip-path="url(#clip6)"><text fill="#595959" font-family="Calibri,Calibri_MSFontService,sans-serif" font-weight="400" font-size="41" transform="matrix(1 0 0 1 3462.98 2374)">0,75</text></g><g clip-path="url(#clip7)"><text fill="#595959" font-family="Calibri,Calibri_MSFontService,sans-serif" font-weight="400" font-size="41" transform="matrix(1 0 0 1 3462.98 2289)">0,80</text></g><g clip-path="url(#clip8)"><text fill="#595959" font-family="Calibri,Calibri_MSFontService,sans-serif" font-weight="400" font-size="41" transform="matrix(1 0 0 1 3462.98 2204)">0,85</text></g><g clip-path="url(#clip9)"><text fill="#595959" font-family="Calibri,Calibri_MSFontService,sans-serif" font-weight="400" font-size="41" transform="matrix(1 0 0 1 3462.98 2118)">0,90</text></g><g clip-path="url(#clip10)"><text fill="#595959" font-family="Calibri,Calibri_MSFontService,sans-serif" font-weight="400" font-size="41" transform="matrix(1 0 0 1 3462.98 2033)">0,95</text></g><g clip-path="url(#clip11)"><text fill="#595959" font-family="Calibri,Calibri_MSFontService,sans-serif" font-weight="400" font-size="41" transform="matrix(1 0 0 1 3462.98 1948)">1,00</text></g><g clip-path="url(#clip12)"><text fill="#595959" font-family="Calibri,Calibri_MSFontService,sans-serif" font-weight="400" font-size="41" transform="matrix(1 0 0 1 3462.98 1863)">1,05</text></g><g clip-path="url(#clip13)"><text fill="#595959" font-family="Calibri,Calibri_MSFontService,sans-serif" font-weight="400" font-size="41" transform="matrix(1 0 0 1 2185.17 2374)">0,00</text></g><g clip-path="url(#clip14)"><text fill="#595959" font-family="Calibri,Calibri_MSFontService,sans-serif" font-weight="400" font-size="41" transform="matrix(1 0 0 1 2164.27 2246)">50,00</text></g><g clip-path="url(#clip15)"><text fill="#595959" font-family="Calibri,Calibri_MSFontService,sans-serif" font-weight="400" font-size="41" transform="matrix(1 0 0 1 2143.37 2118)">100,00</text></g><g clip-path="url(#clip16)"><text fill="#595959" font-family="Calibri,Calibri_MSFontService,sans-serif" font-weight="400" font-size="41" transform="matrix(1 0 0 1 2143.37 1991)">150,00</text></g><g clip-path="url(#clip17)"><text fill="#595959" font-family="Calibri,Calibri_MSFontService,sans-serif" font-weight="400" font-size="41" transform="matrix(1 0 0 1 2143.37 1863)">200,00</text></g><g clip-path="url(#clip18)"><text fill="#595959" font-family="Calibri,Calibri_MSFontService,sans-serif" font-weight="400" font-size="41" transform="matrix(1 0 0 1 2419.45 2428)">tarea01</text></g><g clip-path="url(#clip19)"><text fill="#595959" font-family="Calibri,Calibri_MSFontService,sans-serif" font-weight="400" font-size="41" transform="matrix(1 0 0 1 2795.55 2428)">tarea02</text></g><g clip-path="url(#clip20)"><text fill="#595959" font-family="Calibri,Calibri_MSFontService,sans-serif" font-weight="400" font-size="41" transform="matrix(1 0 0 1 3165.94 2428)">optim02</text></g><g clip-path="url(#clip21)"><text fill="#595959" font-family="Calibri,Calibri_MSFontService,sans-serif" font-weight="400" font-size="46" transform="matrix(6.12323e-17 -1 1 6.12323e-17 3593.72 2195)">Eficiencia</text></g><g clip-path="url(#clip22)"><text fill="#595959" font-family="Calibri,Calibri_MSFontService,sans-serif" font-weight="400" font-size="46" transform="matrix(6.12323e-17 -1 1 6.12323e-17 2117.68 2188)">Speedup</text></g><g clip-path="url(#clip23)"><text fill="#595959" font-family="Calibri,Calibri_MSFontService,sans-serif" font-weight="400" font-size="46" transform="matrix(1 0 0 1 2769.47 2497)">Versiones</text></g><g clip-path="url(#clip24)"><text fill="#595959" font-family="Calibri,Calibri_MSFontService,sans-serif" font-weight="400" font-size="64" transform="matrix(1 0 0 1 2562.31 1777)">Speedup vs Eficiencia</text></g><g clip-path="url(#clip25)"><path d="M2608 2605 2696 2605" stroke="#4472C4" stroke-width="10.3125" stroke-linecap="round" stroke-linejoin="round" stroke-miterlimit="10" fill="none" fill-rule="evenodd"/></g><g clip-path="url(#clip26)"><text fill="#595959" font-family="Calibri,Calibri_MSFontService,sans-serif" font-weight="400" font-size="41" transform="matrix(1 0 0 1 2705.09 2616)">Series1</text></g><g clip-path="url(#clip27)"><path d="M2870 2605 2958 2605" stroke="#ED7D31" stroke-width="10.3125" stroke-linecap="round" stroke-linejoin="round" stroke-miterlimit="10" fill="none" fill-rule="evenodd"/></g><g clip-path="url(#clip28)"><path d="M2924 2604C2924 2610.07 2919.07 2615 2913 2615 2906.93 2615 2902 2610.07 2902 2604 2902 2597.92 2906.93 2593 2913 2593 2919.07 2593 2924 2597.92 2924 2604Z" stroke="#ED7D31" stroke-width="3.4375" stroke-linejoin="round" stroke-miterlimit="10" fill="#ED7D31"/></g><g clip-path="url(#clip29)"><text fill="#595959" font-family="Calibri,Calibri_MSFontService,sans-serif" font-weight="400" font-size="41" transform="matrix(1 0 0 1 2966.79 2616)">Series2</text></g><rect x="2016.5" y="1681.5" width="1647" height="990" stroke="#D9D9D9" stroke-width="3.4375" stroke-linejoin="round" stroke-miterlimit="10" fill="none"/></g></svg>