<svg width="1674" height="1032" xmlns="http://www.w3.org/2000/svg" xmlns:xlink="http://www.w3.org/1999/xlink" xml:space="preserve" overflow="hidden"><defs><clipPath id="clip0"><rect x="1985" y="607" width="1674" height="1032"/></clipPath><clipPath id="clip1"><rect x="1986" y="608" width="1670" height="1029"/></clipPath><clipPath id="clip2"><rect x="1986" y="608" width="1670" height="1029"/></clipPath><clipPath id="clip3"><rect x="2307" y="778" width="1073" height="554"/></clipPath><clipPath id="clip4"><rect x="2307" y="778" width="1073" height="554"/></clipPath><clipPath id="clip5"><rect x="1986" y="608" width="1670" height="1029"/></clipPath><clipPath id="clip6"><rect x="1986" y="608" width="1670" height="1029"/></clipPath><clipPath id="clip7"><rect x="1986" y="608" width="1670" height="1029"/></clipPath><clipPath id="clip8"><rect x="1986" y="608" width="1670" height="1029"/></clipPath><clipPath id="clip9"><rect x="1986" y="608" width="1670" height="1029"/></clipPath><clipPath id="clip10"><rect x="1986" y="608" width="1670" height="1029"/></clipPath><clipPath id="clip11"><rect x="1986" y="608" width="1670" height="1029"/></clipPath><clipPath id="clip12"><rect x="1986" y="608" width="1670" height="1029"/></clipPath><clipPath id="clip13"><rect x="1986" y="608" width="1670" height="1029"/></clipPath><clipPath id="clip14"><rect x="1986" y="608" width="1670" height="1029"/></clipPath><clipPath id="clip15"><rect x="1986" y="608" width="1670" height="1029"/></clipPath><clipPath id="clip16"><rect x="1986" y="608" width="1670" height="1029"/></clipPath><clipPath id="clip17"><rect x="1986" y="608" width="1670" height="1029"/></clipPath><clipPath id="clip18"><rect x="1986" y="608" width="1670" height="1029"/></clipPath><clipPath id="clip19"><rect x="1986" y="608" width="1670" height="1029"/></clipPath><clipPath id="clip20"><rect x="1986" y="608" width="1670" height="1029"/></clipPath><clipPath id="clip21"><rect x="1986" y="608" width="1670" height="1029"/></clipPath><clipPath id="clip22"><rect x="1986" y="608" width="1670" height="1029"/></clipPath><clipPath id="clip23"><rect x="1986" y="608" width="1670" height="1029"/></clipPath><clipPath id="clip24"><rect x="1986" y="608" width="1670" height="1029"/></clipPath><clipPath id="clip25"><rect x="1986" y="608" width="1670" height="1029"/></clipPath><clipPath id="clip26"><rect x="1986" y="608" width="1670" height="1029"/></clipPath><clipPath id="clip27"><rect x="1986" y="608" width="1670" height="1029"/></clipPath><clipPath id="clip28"><rect x="1986" y="608" width="1670" height="1029"/></clipPath><clipPath id="clip29"><rect x="1986" y="608" width="1670" height="1029"/></clipPath><clipPath id="clip30"><rect x="1986" y="608" width="1670" height="1029"/></clipPath><clipPath id="clip31"><rect x="1986" y="608" width="1670" height="1029"/></clipPath><clipPath id="clip32"><rect x="1986" y="608" width="1670" height="1029"/></clipPath><clipPath id="clip33"><rect x="1986" y="608" width="1670" height="1029"/></clipPath><clipPath id="clip34"><rect x="1986" y="608" width="1670" height="1029"/></clipPath><clipPath id="clip35"><rect x="1986" y="608" width="1670" height="1029"/></clipPath><clipPath id="clip36"><rect x="1986" y="608" width="1670" height="1029"/></clipPath><clipPath id="clip37"><rect x="1986" y="608" width="1670" height="1029"/></clipPath></defs><g clip-path="url(#clip0)" transform="translate(-1985 -607)"><rect x="1986" y="608" width="1671" height="1029" fill="#FFFFFF"/><g clip-path="url(#clip1)"><path d="M2307.5 1260.54 3376.5 1260.54M2307.5 1191.54 3376.5 1191.54M2307.5 1122.54 3376.5 1122.54M2307.5 1053.53 3376.5 1053.53M2307.5 984.532 3376.5 984.532M2307.5 916.53 3376.5 916.53M2307.5 847.528 3376.5 847.528M2307.5 778.5 3376.5 778.5" stroke="#D9D9D9" stroke-width="3.4375" stroke-linejoin="round" stroke-miterlimit="10" fill="none"/></g><g clip-path="url(#clip2)"><path d="M2307.5 1329.5 3376.5 1329.5" stroke="#D9D9D9" stroke-width="3.4375" stroke-linejoin="round" stroke-miterlimit="10" fill="none" fill-rule="evenodd"/></g><g clip-path="url(#clip3)"><path d="M2486 850 2842.09 1191.04 3199 1326" stroke="#4472C4" stroke-width="10.3125" stroke-linecap="round" stroke-linejoin="round" stroke-miterlimit="10" fill="none"/></g><g clip-path="url(#clip4)"><path d="M2486 1326 2842.09 1320.04 3199 820" stroke="#ED7D31" stroke-width="10.3125" stroke-linecap="round" stroke-linejoin="round" stroke-miterlimit="10" fill="none"/></g><g clip-path="url(#clip5)"><path d="M2497.63 1326.86C2497.63 1332.94 2492.7 1337.86 2486.63 1337.86 2480.55 1337.86 2475.63 1332.94 2475.63 1326.86 2475.63 1320.79 2480.55 1315.86 2486.63 1315.86 2492.7 1315.86 2497.63 1320.79 2497.63 1326.86Z" stroke="#ED7D31" stroke-width="3.4375" stroke-linejoin="round" stroke-miterlimit="10" fill="#ED7D31"/><path d="M2853.63 1319.86C2853.63 1325.94 2848.7 1330.86 2842.63 1330.86 2836.55 1330.86 2831.63 1325.94 2831.63 1319.86 2831.63 1313.79 2836.55 1308.86 2842.63 1308.86 2848.7 1308.86 2853.63 1313.79 2853.63 1319.86Z" stroke="#ED7D31" stroke-width="3.4375" stroke-linejoin="round" stroke-miterlimit="10" fill="#ED7D31"/><path d="M3209.63 819.862C3209.63 825.937 3204.7 830.861 3198.63 830.861 3192.55 830.861 3187.63 825.937 3187.63 819.862 3187.63 813.787 3192.55 808.862 3198.63 808.862 3204.7 808.862 3209.63 813.787 3209.63 819.862Z" stroke="#ED7D31" stroke-width="3.4375" stroke-linejoin="round" stroke-miterlimit="10" fill="#ED7D31"/></g><g clip-path="url(#clip6)"><text fill="#595959" font-family="Calibri,Calibri_MSFontService,sans-serif" font-weight="400" font-size="41" transform="matrix(1 0 0 1 3414.98 1341)">0,00</text></g><g clip-path="url(#clip7)"><text fill="#595959" font-family="Calibri,Calibri_MSFontService,sans-serif" font-weight="400" font-size="41" transform="matrix(1 0 0 1 3414.98 1286)">20,00</text></g><g clip-path="url(#clip8)"><text fill="#595959" font-family="Calibri,Calibri_MSFontService,sans-serif" font-weight="400" font-size="41" transform="matrix(1 0 0 1 3414.98 1230)">40,00</text></g><g clip-path="url(#clip9)"><text fill="#595959" font-family="Calibri,Calibri_MSFontService,sans-serif" font-weight="400" font-size="41" transform="matrix(1 0 0 1 3414.98 1175)">60,00</text></g><g clip-path="url(#clip10)"><text fill="#595959" font-family="Calibri,Calibri_MSFontService,sans-serif" font-weight="400" font-size="41" transform="matrix(1 0 0 1 3414.98 1120)">80,00</text></g><g clip-path="url(#clip11)"><text fill="#595959" font-family="Calibri,Calibri_MSFontService,sans-serif" font-weight="400" font-size="41" transform="matrix(1 0 0 1 3414.98 1065)">100,00</text></g><g clip-path="url(#clip12)"><text fill="#595959" font-family="Calibri,Calibri_MSFontService,sans-serif" font-weight="400" font-size="41" transform="matrix(1 0 0 1 3414.98 1010)">120,00</text></g><g clip-path="url(#clip13)"><text fill="#595959" font-family="Calibri,Calibri_MSFontService,sans-serif" font-weight="400" font-size="41" transform="matrix(1 0 0 1 3414.98 955)">140,00</text></g><g clip-path="url(#clip14)"><text fill="#595959" font-family="Calibri,Calibri_MSFontService,sans-serif" font-weight="400" font-size="41" transform="matrix(1 0 0 1 3414.98 900)">160,00</text></g><g clip-path="url(#clip15)"><text fill="#595959" font-family="Calibri,Calibri_MSFontService,sans-serif" font-weight="400" font-size="41" transform="matrix(1 0 0 1 3414.98 845)">180,00</text></g><g clip-path="url(#clip16)"><text fill="#595959" font-family="Calibri,Calibri_MSFontService,sans-serif" font-weight="400" font-size="41" transform="matrix(1 0 0 1 3414.98 790)">200,00</text></g><g clip-path="url(#clip17)"><text fill="#595959" font-family="Calibri,Calibri_MSFontService,sans-serif" font-weight="400" font-size="41" transform="matrix(1 0 0 1 2134.01 1341)">0,00000</text></g><g clip-path="url(#clip18)"><text fill="#595959" font-family="Calibri,Calibri_MSFontService,sans-serif" font-weight="400" font-size="41" transform="matrix(1 0 0 1 2113.11 1272)">10,00000</text></g><g clip-path="url(#clip19)"><text fill="#595959" font-family="Calibri,Calibri_MSFontService,sans-serif" font-weight="400" font-size="41" transform="matrix(1 0 0 1 2113.11 1203)">20,00000</text></g><g clip-path="url(#clip20)"><text fill="#595959" font-family="Calibri,Calibri_MSFontService,sans-serif" font-weight="400" font-size="41" transform="matrix(1 0 0 1 2113.11 1134)">30,00000</text></g><g clip-path="url(#clip21)"><text fill="#595959" font-family="Calibri,Calibri_MSFontService,sans-serif" font-weight="400" font-size="41" transform="matrix(1 0 0 1 2113.11 1065)">40,00000</text></g><g clip-path="url(#clip22)"><text fill="#595959" font-family="Calibri,Calibri_MSFontService,sans-serif" font-weight="400" font-size="41" transform="matrix(1 0 0 1 2113.11 996)">50,00000</text></g><g clip-path="url(#clip23)"><text fill="#595959" font-family="Calibri,Calibri_MSFontService,sans-serif" font-weight="400" font-size="41" transform="matrix(1 0 0 1 2113.11 928)">60,00000</text></g><g clip-path="url(#clip24)"><text fill="#595959" font-family="Calibri,Calibri_MSFontService,sans-serif" font-weight="400" font-size="41" transform="matrix(1 0 0 1 2113.11 859)">70,00000</text></g><g clip-path="url(#clip25)"><text fill="#595959" font-family="Calibri,Calibri_MSFontService,sans-serif" font-weight="400" font-size="41" transform="matrix(1 0 0 1 2113.11 790)">80,00000</text></g><g clip-path="url(#clip26)"><text fill="#595959" font-family="Calibri,Calibri_MSFontService,sans-serif" font-weight="400" font-size="41" transform="matrix(1 0 0 1 2421.06 1394)">tarea01</text></g><g clip-path="url(#clip27)"><text fill="#595959" font-family="Calibri,Calibri_MSFontService,sans-serif" font-weight="400" font-size="41" transform="matrix(1 0 0 1 2777.31 1394)">tarea02</text></g><g clip-path="url(#clip28)"><text fill="#595959" font-family="Calibri,Calibri_MSFontService,sans-serif" font-weight="400" font-size="41" transform="matrix(1 0 0 1 3127.86 1394)">optim02</text></g><g clip-path="url(#clip29)"><text fill="#595959" font-family="Calibri,Calibri_MSFontService,sans-serif" font-weight="400" font-size="46" transform="matrix(6.12323e-17 -1 1 6.12323e-17 3587.52 1108)">Veces</text></g><g clip-path="url(#clip30)"><text fill="#595959" font-family="Calibri,Calibri_MSFontService,sans-serif" font-weight="400" font-size="46" transform="matrix(6.12323e-17 -1 1 6.12323e-17 2087.42 1246)">Tiempo en segundos</text></g><g clip-path="url(#clip31)"><text fill="#595959" font-family="Calibri,Calibri_MSFontService,sans-serif" font-weight="400" font-size="46" transform="matrix(1 0 0 1 2721.49 1463)">Título del eje</text></g><g clip-path="url(#clip32)"><text fill="#595959" font-family="Calibri,Calibri_MSFontService,sans-serif" font-weight="400" font-size="64" transform="matrix(1 0 0 1 2596.5 704)">Tiempo, speedup</text></g><g clip-path="url(#clip33)"><path d="M2590 1571 2678 1571" stroke="#4472C4" stroke-width="10.3125" stroke-linecap="round" stroke-linejoin="round" stroke-miterlimit="10" fill="none" fill-rule="evenodd"/></g><g clip-path="url(#clip34)"><text fill="#595959" font-family="Calibri,Calibri_MSFontService,sans-serif" font-weight="400" font-size="41" transform="matrix(1 0 0 1 2686.86 1583)">Series1</text></g><g clip-path="url(#clip35)"><path d="M2851 1571 2939 1571" stroke="#ED7D31" stroke-width="10.3125" stroke-linecap="round" stroke-linejoin="round" stroke-miterlimit="10" fill="none" fill-rule="evenodd"/></g><g clip-path="url(#clip36)"><path d="M2906 1571C2906 1577.07 2901.07 1582 2895 1582 2888.92 1582 2884 1577.07 2884 1571 2884 1564.92 2888.92 1560 2895 1560 2901.07 1560 2906 1564.92 2906 1571Z" stroke="#ED7D31" stroke-width="3.4375" stroke-linejoin="round" stroke-miterlimit="10" fill="#ED7D31"/></g><g clip-path="url(#clip37)"><text fill="#595959" font-family="Calibri,Calibri_MSFontService,sans-serif" font-weight="400" font-size="41" transform="matrix(1 0 0 1 2948.55 1583)">Series2</text></g><rect x="1986.5" y="608.5" width="1671" height="1029" stroke="#D9D9D9" stroke-width="3.4375" stroke-linejoin="round" stroke-miterlimit="10" fill="none"/></g></svg>